<svg xmlns="http://www.w3.org/2000/svg" xmlns:xlink="http://www.w3.org/1999/xlink" width="600" zoomAndPan="magnify" viewBox="0 0 450 74.999997" height="100" preserveAspectRatio="xMidYMid meet" version="1.0"><defs><g/><clipPath id="4002629a66"><rect x="0" width="375" y="0" height="75"/></clipPath><clipPath id="b97c24dd7e"><path d="M 51 8 L 67 8 L 67 23 L 51 23 Z M 51 8 " clip-rule="nonzero"/></clipPath><clipPath id="f550846769"><path d="M 110 8 L 126 8 L 126 23 L 110 23 Z M 110 8 " clip-rule="nonzero"/></clipPath><clipPath id="a7a39ba271"><path d="M 139 8 L 151 8 L 151 23 L 139 23 Z M 139 8 " clip-rule="nonzero"/></clipPath><clipPath id="da6c6d1de8"><rect x="0" width="164" y="0" height="23"/></clipPath></defs><g transform="matrix(1, 0, 0, 1, 41, -0.000000000000001893)"><g clip-path="url(#4002629a66)"><g fill="#ffffff" fill-opacity="1"><g transform="translate(1.40708, 52.803292)"><g><path d="M 32.8125 -47.90625 L 32.8125 -42.0625 L 32.125 -42.0625 L 32.125 -43.109375 C 32.125 -44.035156 31.796875 -44.832031 31.140625 -45.5 C 30.492188 -46.175781 29.6875 -46.515625 28.71875 -46.515625 L 14.046875 -46.515625 L 14.046875 -25.03125 L 25.796875 -25.03125 C 26.722656 -25.070312 27.507812 -25.414062 28.15625 -26.0625 C 28.8125 -26.71875 29.140625 -27.507812 29.140625 -28.4375 L 29.140625 -29.484375 L 29.828125 -29.484375 L 29.828125 -18.5 L 29.140625 -18.5 L 29.140625 -19.53125 C 29.140625 -20.457031 28.820312 -21.242188 28.1875 -21.890625 C 27.5625 -22.546875 26.785156 -22.894531 25.859375 -22.9375 L 14.046875 -22.9375 L 14.046875 -5.078125 C 14.046875 -3.867188 14.484375 -2.832031 15.359375 -1.96875 C 16.242188 -1.113281 17.289062 -0.6875 18.5 -0.6875 L 19.40625 -0.6875 L 19.40625 0 L 4.171875 0 L 4.171875 -0.6875 L 5.078125 -0.6875 C 6.285156 -0.6875 7.316406 -1.113281 8.171875 -1.96875 C 9.023438 -2.832031 9.476562 -3.867188 9.53125 -5.078125 L 9.53125 -44.015625 C 9.53125 -45.128906 9.078125 -46.066406 8.171875 -46.828125 C 7.265625 -47.585938 6.234375 -47.96875 5.078125 -47.96875 L 4.234375 -47.96875 L 4.171875 -48.671875 L 24.546875 -48.671875 C 25.984375 -48.671875 27.546875 -48.804688 29.234375 -49.078125 C 30.929688 -49.359375 32.125 -49.640625 32.8125 -49.921875 Z M 32.8125 -47.90625 "/></g></g></g><g fill="#ffffff" fill-opacity="1"><g transform="translate(45.971323, 52.803292)"><g><path d="M 5.078125 -0.6875 C 6.285156 -0.6875 7.316406 -1.113281 8.171875 -1.96875 C 9.023438 -2.832031 9.476562 -3.867188 9.53125 -5.078125 L 9.53125 -43.59375 C 9.476562 -44.800781 9.023438 -45.832031 8.171875 -46.6875 C 7.316406 -47.539062 6.285156 -47.96875 5.078125 -47.96875 L 4.171875 -47.96875 L 4.171875 -48.671875 L 19.40625 -48.671875 L 19.40625 -47.96875 L 18.5 -47.96875 C 16.820312 -47.96875 15.546875 -47.253906 14.671875 -45.828125 C 14.253906 -45.128906 14.046875 -44.382812 14.046875 -43.59375 L 14.046875 -2.15625 L 23.984375 -2.15625 C 27.421875 -2.15625 30.039062 -2.921875 31.84375 -4.453125 C 33.65625 -5.984375 35.160156 -8.253906 36.359375 -11.265625 L 37.0625 -11.265625 L 33.03125 0 L 4.171875 0 L 4.171875 -0.6875 Z M 5.078125 -0.6875 "/></g></g></g><g fill="#ffffff" fill-opacity="1"><g transform="translate(91.995449, 52.803292)"><g><path d="M 11.78125 -42.65625 C 16.394531 -47.3125 22.410156 -49.640625 29.828125 -49.640625 C 37.242188 -49.640625 43.269531 -47.3125 47.90625 -42.65625 C 52.539062 -38 54.859375 -31.890625 54.859375 -24.328125 C 54.859375 -16.773438 52.539062 -10.671875 47.90625 -6.015625 C 43.269531 -1.359375 37.242188 0.96875 29.828125 0.96875 C 22.410156 0.96875 16.394531 -1.359375 11.78125 -6.015625 C 7.164062 -10.671875 4.859375 -16.773438 4.859375 -24.328125 C 4.859375 -31.890625 7.164062 -38 11.78125 -42.65625 Z M 15.609375 -7.5 C 19.203125 -3.238281 23.953125 -1.109375 29.859375 -1.109375 C 35.773438 -1.109375 40.523438 -3.238281 44.109375 -7.5 C 47.703125 -11.769531 49.5 -17.378906 49.5 -24.328125 C 49.5 -28.921875 48.6875 -32.976562 47.0625 -36.5 C 45.445312 -40.019531 43.144531 -42.742188 40.15625 -44.671875 C 37.164062 -46.597656 33.722656 -47.5625 29.828125 -47.5625 C 23.941406 -47.5625 19.203125 -45.425781 15.609375 -41.15625 C 12.015625 -36.894531 10.21875 -31.285156 10.21875 -24.328125 C 10.21875 -17.378906 12.015625 -11.769531 15.609375 -7.5 Z M 15.609375 -7.5 "/></g></g></g><g fill="#ffffff" fill-opacity="1"><g transform="translate(157.206431, 52.803292)"><g><path d="M 69.03125 -47.96875 L 68.484375 -47.96875 C 66.765625 -47.96875 65.257812 -47.34375 63.96875 -46.09375 C 63.21875 -45.445312 62.679688 -44.640625 62.359375 -43.671875 L 50.8125 -6.890625 C 49.882812 -3.960938 49.378906 -1.390625 49.296875 0.828125 L 48.671875 0.828125 L 34.484375 -38.9375 L 23.90625 -6.890625 C 23.03125 -4.015625 22.546875 -1.441406 22.453125 0.828125 L 21.828125 0.828125 L 6.046875 -43.734375 C 5.484375 -45.128906 4.625 -46.179688 3.46875 -46.890625 C 2.3125 -47.609375 1.128906 -47.96875 -0.078125 -47.96875 L -0.625 -47.96875 L -0.625 -48.671875 L 14.796875 -48.671875 L 14.796875 -47.96875 L 14.171875 -47.96875 C 13.203125 -47.96875 12.472656 -47.65625 11.984375 -47.03125 C 11.492188 -46.40625 11.25 -45.816406 11.25 -45.265625 C 11.25 -44.710938 11.320312 -44.203125 11.46875 -43.734375 L 22.03125 -9.875 L 34.96875 -49.78125 L 35.59375 -49.71875 L 49.296875 -11.265625 L 58.609375 -43.796875 C 58.742188 -44.304688 58.8125 -44.828125 58.8125 -45.359375 C 58.8125 -45.898438 58.578125 -46.46875 58.109375 -47.0625 C 57.648438 -47.664062 56.9375 -47.96875 55.96875 -47.96875 L 55.34375 -47.96875 L 55.34375 -48.671875 L 69.03125 -48.671875 Z M 69.03125 -47.96875 "/></g></g></g><g fill="#ffffff" fill-opacity="1"><g transform="translate(232.427961, 52.803292)"><g><path d="M 5.078125 -0.6875 C 6.285156 -0.6875 7.316406 -1.113281 8.171875 -1.96875 C 9.023438 -2.832031 9.476562 -3.867188 9.53125 -5.078125 L 9.53125 -44.015625 C 9.382812 -45.128906 8.894531 -46.066406 8.0625 -46.828125 C 7.226562 -47.585938 6.234375 -47.96875 5.078125 -47.96875 L 4.234375 -47.96875 L 4.171875 -48.671875 L 24.546875 -48.671875 C 25.984375 -48.671875 27.546875 -48.804688 29.234375 -49.078125 C 30.929688 -49.359375 32.125 -49.640625 32.8125 -49.921875 L 32.8125 -41.15625 L 32.125 -41.15625 L 32.125 -42.40625 C 32.125 -43.519531 31.738281 -44.472656 30.96875 -45.265625 C 30.207031 -46.054688 29.296875 -46.472656 28.234375 -46.515625 L 14.046875 -46.515625 L 14.046875 -25.03125 L 25.796875 -25.03125 C 26.722656 -25.070312 27.507812 -25.414062 28.15625 -26.0625 C 28.8125 -26.71875 29.140625 -27.53125 29.140625 -28.5 L 29.140625 -29.484375 L 29.828125 -29.484375 L 29.828125 -18.5 L 29.140625 -18.5 L 29.140625 -19.53125 C 29.140625 -20.457031 28.820312 -21.242188 28.1875 -21.890625 C 27.5625 -22.546875 26.785156 -22.894531 25.859375 -22.9375 L 14.046875 -22.9375 L 14.046875 -2.15625 L 23.984375 -2.15625 C 27.421875 -2.15625 30.039062 -2.921875 31.84375 -4.453125 C 33.65625 -5.984375 35.160156 -8.253906 36.359375 -11.265625 L 37.0625 -11.265625 L 33.03125 0 L 4.171875 0 L 4.171875 -0.6875 Z M 5.078125 -0.6875 "/></g></g></g><g fill="#ffffff" fill-opacity="1"><g transform="translate(279.494852, 52.803292)"><g><path d="M 18.5 -46.515625 L 14.046875 -46.515625 L 14.046875 -5.078125 C 14.046875 -3.867188 14.472656 -2.832031 15.328125 -1.96875 C 16.191406 -1.113281 17.25 -0.6875 18.5 -0.6875 L 19.328125 -0.6875 L 19.40625 0 L 4.171875 0 L 4.171875 -0.6875 L 5.078125 -0.6875 C 6.285156 -0.6875 7.316406 -1.101562 8.171875 -1.9375 C 9.023438 -2.78125 9.476562 -3.800781 9.53125 -5 L 9.53125 -43.59375 C 9.476562 -44.800781 9.023438 -45.832031 8.171875 -46.6875 C 7.316406 -47.539062 6.285156 -47.96875 5.078125 -47.96875 L 4.171875 -47.96875 L 4.171875 -48.671875 L 22.9375 -48.671875 C 27.15625 -48.671875 30.46875 -47.5 32.875 -45.15625 C 35.289062 -42.820312 36.5 -39.785156 36.5 -36.046875 C 36.5 -32.316406 35.351562 -29.09375 33.0625 -26.375 C 30.769531 -23.664062 27.976562 -22.3125 24.6875 -22.3125 C 25.375 -21.988281 26.191406 -21.351562 27.140625 -20.40625 C 28.097656 -19.457031 28.945312 -18.472656 29.6875 -17.453125 C 33.675781 -11.753906 36.269531 -8.242188 37.46875 -6.921875 C 38.675781 -5.597656 39.535156 -4.691406 40.046875 -4.203125 C 40.554688 -3.710938 41.113281 -3.234375 41.71875 -2.765625 C 42.320312 -2.304688 42.925781 -1.941406 43.53125 -1.671875 C 44.875 -1.015625 46.3125 -0.6875 47.84375 -0.6875 L 47.84375 0 L 44.015625 0 C 42.015625 0 40.15625 -0.359375 38.4375 -1.078125 C 36.726562 -1.796875 35.445312 -2.535156 34.59375 -3.296875 C 33.738281 -4.066406 32.992188 -4.8125 32.359375 -5.53125 C 31.734375 -6.25 30.003906 -8.644531 27.171875 -12.71875 C 24.347656 -16.800781 22.703125 -19.128906 22.234375 -19.703125 C 21.773438 -20.285156 21.296875 -20.859375 20.796875 -21.421875 C 19.304688 -22.992188 17.820312 -23.78125 16.34375 -23.78125 L 16.34375 -24.46875 C 16.707031 -24.425781 17.191406 -24.40625 17.796875 -24.40625 C 18.398438 -24.40625 19.144531 -24.425781 20.03125 -24.46875 C 25.769531 -24.613281 29.382812 -27.023438 30.875 -31.703125 C 31.144531 -32.628906 31.28125 -33.5 31.28125 -34.3125 C 31.28125 -35.125 31.28125 -35.644531 31.28125 -35.875 C 31.195312 -38.976562 30.390625 -41.476562 28.859375 -43.375 C 27.328125 -45.28125 25.265625 -46.304688 22.671875 -46.453125 C 21.554688 -46.492188 20.164062 -46.515625 18.5 -46.515625 Z M 18.5 -46.515625 "/></g></g></g><g fill="#ffffff" fill-opacity="1"><g transform="translate(333.513497, 52.803292)"><g><path d="M 4.234375 -2.84375 C 4.097656 -3.5 4.03125 -4.753906 4.03125 -6.609375 C 4.03125 -8.460938 4.378906 -10.429688 5.078125 -12.515625 L 5.703125 -12.515625 C 5.648438 -12.003906 5.625 -11.492188 5.625 -10.984375 C 5.625 -8.160156 6.484375 -5.804688 8.203125 -3.921875 C 9.921875 -2.046875 12.191406 -1.109375 15.015625 -1.109375 C 17.941406 -1.109375 20.34375 -1.988281 22.21875 -3.75 C 24.09375 -5.507812 25.03125 -7.722656 25.03125 -10.390625 C 25.03125 -13.054688 24.125 -15.222656 22.3125 -16.890625 L 8.96875 -29.265625 C 6.46875 -31.585938 5.21875 -34.394531 5.21875 -37.6875 C 5.21875 -40.976562 6.316406 -43.789062 8.515625 -46.125 C 10.710938 -48.46875 13.691406 -49.640625 17.453125 -49.640625 C 19.210938 -49.640625 21.207031 -49.410156 23.4375 -48.953125 L 26.140625 -48.953125 L 26.140625 -40.390625 L 25.515625 -40.390625 C 25.515625 -42.578125 24.757812 -44.316406 23.25 -45.609375 C 21.75 -46.910156 19.816406 -47.5625 17.453125 -47.5625 C 15.085938 -47.5625 13.101562 -46.769531 11.5 -45.1875 C 9.90625 -43.613281 9.109375 -41.644531 9.109375 -39.28125 C 9.109375 -36.914062 10.035156 -34.878906 11.890625 -33.171875 L 25.59375 -20.515625 C 27.90625 -18.378906 29.0625 -15.457031 29.0625 -11.75 C 29.0625 -8.039062 27.878906 -4.992188 25.515625 -2.609375 C 23.148438 -0.222656 20 0.96875 16.0625 0.96875 C 14.019531 0.96875 11.851562 0.65625 9.5625 0.03125 C 7.269531 -0.59375 5.492188 -1.550781 4.234375 -2.84375 Z M 4.234375 -2.84375 "/></g></g></g></g></g><g transform="matrix(1, 0, 0, 1, 149, 52)"><g clip-path="url(#da6c6d1de8)"><g fill="#ffffff" fill-opacity="1"><g transform="translate(0.40927, 22.897394)"><g><path d="M 2.109375 0 L 2.109375 -14.453125 L 7 -14.453125 C 8.09375 -14.453125 9.039062 -14.253906 9.84375 -13.859375 C 10.644531 -13.460938 11.265625 -12.898438 11.703125 -12.171875 C 12.148438 -11.453125 12.375 -10.597656 12.375 -9.609375 C 12.375 -8.617188 12.148438 -7.757812 11.703125 -7.03125 C 11.265625 -6.3125 10.644531 -5.75 9.84375 -5.34375 C 9.039062 -4.945312 8.09375 -4.75 7 -4.75 L 3.921875 -4.75 L 3.921875 0 Z M 3.921875 -6.4375 L 6.96875 -6.4375 C 9.332031 -6.4375 10.515625 -7.484375 10.515625 -9.578125 C 10.515625 -11.671875 9.332031 -12.71875 6.96875 -12.71875 L 3.921875 -12.71875 Z M 3.921875 -6.4375 "/></g></g></g><g fill="#ffffff" fill-opacity="1"><g transform="translate(24.989347, 22.897394)"><g><path d="M 2.109375 0 L 2.109375 -14.453125 L 7.625 -14.453125 C 8.625 -14.453125 9.492188 -14.265625 10.234375 -13.890625 C 10.984375 -13.515625 11.5625 -12.976562 11.96875 -12.28125 C 12.382812 -11.59375 12.59375 -10.769531 12.59375 -9.8125 C 12.59375 -8.644531 12.289062 -7.675781 11.6875 -6.90625 C 11.082031 -6.144531 10.25 -5.632812 9.1875 -5.375 L 12.828125 0 L 10.640625 0 L 7.109375 -5.1875 L 3.921875 -5.1875 L 3.921875 0 Z M 3.921875 -6.921875 L 7.421875 -6.921875 C 8.472656 -6.921875 9.285156 -7.171875 9.859375 -7.671875 C 10.441406 -8.171875 10.734375 -8.882812 10.734375 -9.8125 C 10.734375 -10.738281 10.441406 -11.453125 9.859375 -11.953125 C 9.285156 -12.460938 8.472656 -12.71875 7.421875 -12.71875 L 3.921875 -12.71875 Z M 3.921875 -6.921875 "/></g></g></g><g clip-path="url(#b97c24dd7e)"><g fill="#ffffff" fill-opacity="1"><g transform="translate(50.436949, 22.897394)"><g><path d="M 8.671875 0.265625 C 7.210938 0.265625 5.914062 -0.0507812 4.78125 -0.6875 C 3.65625 -1.332031 2.773438 -2.21875 2.140625 -3.34375 C 1.515625 -4.476562 1.203125 -5.773438 1.203125 -7.234375 C 1.203125 -8.703125 1.515625 -10 2.140625 -11.125 C 2.773438 -12.25 3.65625 -13.128906 4.78125 -13.765625 C 5.914062 -14.410156 7.210938 -14.734375 8.671875 -14.734375 C 10.148438 -14.734375 11.445312 -14.410156 12.5625 -13.765625 C 13.6875 -13.128906 14.566406 -12.25 15.203125 -11.125 C 15.847656 -10 16.171875 -8.703125 16.171875 -7.234375 C 16.171875 -5.773438 15.847656 -4.476562 15.203125 -3.34375 C 14.566406 -2.21875 13.6875 -1.332031 12.5625 -0.6875 C 11.445312 -0.0507812 10.148438 0.265625 8.671875 0.265625 Z M 3.0625 -7.234375 C 3.0625 -6.117188 3.296875 -5.132812 3.765625 -4.28125 C 4.242188 -3.425781 4.90625 -2.753906 5.75 -2.265625 C 6.59375 -1.785156 7.566406 -1.546875 8.671875 -1.546875 C 9.785156 -1.546875 10.765625 -1.785156 11.609375 -2.265625 C 12.453125 -2.753906 13.109375 -3.425781 13.578125 -4.28125 C 14.054688 -5.132812 14.296875 -6.117188 14.296875 -7.234375 C 14.296875 -8.359375 14.054688 -9.34375 13.578125 -10.1875 C 13.109375 -11.039062 12.453125 -11.707031 11.609375 -12.1875 C 10.765625 -12.664062 9.785156 -12.90625 8.671875 -12.90625 C 7.566406 -12.90625 6.59375 -12.664062 5.75 -12.1875 C 4.90625 -11.707031 4.242188 -11.039062 3.765625 -10.1875 C 3.296875 -9.34375 3.0625 -8.359375 3.0625 -7.234375 Z M 3.0625 -7.234375 "/></g></g></g></g><g fill="#ffffff" fill-opacity="1"><g transform="translate(79.1688, 22.897394)"><g><path d="M 2.109375 0 L 2.109375 -14.453125 L 3.796875 -14.453125 L 9.484375 -5.890625 L 15.125 -14.453125 L 16.8125 -14.453125 L 16.8125 0 L 15 0 L 15 -11.046875 L 10.203125 -3.84375 L 8.71875 -3.84375 L 3.921875 -11.078125 L 3.921875 0 Z M 2.109375 0 "/></g></g></g><g clip-path="url(#f550846769)"><g fill="#ffffff" fill-opacity="1"><g transform="translate(109.470469, 22.897394)"><g><path d="M 8.671875 0.265625 C 7.210938 0.265625 5.914062 -0.0507812 4.78125 -0.6875 C 3.65625 -1.332031 2.773438 -2.21875 2.140625 -3.34375 C 1.515625 -4.476562 1.203125 -5.773438 1.203125 -7.234375 C 1.203125 -8.703125 1.515625 -10 2.140625 -11.125 C 2.773438 -12.25 3.65625 -13.128906 4.78125 -13.765625 C 5.914062 -14.410156 7.210938 -14.734375 8.671875 -14.734375 C 10.148438 -14.734375 11.445312 -14.410156 12.5625 -13.765625 C 13.6875 -13.128906 14.566406 -12.25 15.203125 -11.125 C 15.847656 -10 16.171875 -8.703125 16.171875 -7.234375 C 16.171875 -5.773438 15.847656 -4.476562 15.203125 -3.34375 C 14.566406 -2.21875 13.6875 -1.332031 12.5625 -0.6875 C 11.445312 -0.0507812 10.148438 0.265625 8.671875 0.265625 Z M 3.0625 -7.234375 C 3.0625 -6.117188 3.296875 -5.132812 3.765625 -4.28125 C 4.242188 -3.425781 4.90625 -2.753906 5.75 -2.265625 C 6.59375 -1.785156 7.566406 -1.546875 8.671875 -1.546875 C 9.785156 -1.546875 10.765625 -1.785156 11.609375 -2.265625 C 12.453125 -2.753906 13.109375 -3.425781 13.578125 -4.28125 C 14.054688 -5.132812 14.296875 -6.117188 14.296875 -7.234375 C 14.296875 -8.359375 14.054688 -9.34375 13.578125 -10.1875 C 13.109375 -11.039062 12.453125 -11.707031 11.609375 -12.1875 C 10.765625 -12.664062 9.785156 -12.90625 8.671875 -12.90625 C 7.566406 -12.90625 6.59375 -12.664062 5.75 -12.1875 C 4.90625 -11.707031 4.242188 -11.039062 3.765625 -10.1875 C 3.296875 -9.34375 3.0625 -8.359375 3.0625 -7.234375 Z M 3.0625 -7.234375 "/></g></g></g></g><g clip-path="url(#a7a39ba271)"><g fill="#ffffff" fill-opacity="1"><g transform="translate(138.20232, 22.897394)"><g><path d="M 6.921875 0.265625 C 5.765625 0.265625 4.757812 0.0703125 3.90625 -0.3125 C 3.0625 -0.707031 2.410156 -1.257812 1.953125 -1.96875 C 1.492188 -2.675781 1.253906 -3.5 1.234375 -4.4375 L 3.0625 -4.4375 C 3.082031 -3.519531 3.445312 -2.796875 4.15625 -2.265625 C 4.863281 -1.734375 5.785156 -1.46875 6.921875 -1.46875 C 7.941406 -1.46875 8.75 -1.664062 9.34375 -2.0625 C 9.945312 -2.46875 10.25 -3.023438 10.25 -3.734375 C 10.25 -4.410156 9.957031 -4.953125 9.375 -5.359375 C 8.800781 -5.765625 7.859375 -6.117188 6.546875 -6.421875 C 4.773438 -6.847656 3.472656 -7.394531 2.640625 -8.0625 C 1.816406 -8.726562 1.40625 -9.617188 1.40625 -10.734375 C 1.40625 -11.960938 1.867188 -12.9375 2.796875 -13.65625 C 3.722656 -14.375 4.976562 -14.734375 6.5625 -14.734375 C 8.1875 -14.734375 9.472656 -14.328125 10.421875 -13.515625 C 11.367188 -12.703125 11.847656 -11.59375 11.859375 -10.1875 L 10.0625 -10.1875 C 10.039062 -11.050781 9.71875 -11.734375 9.09375 -12.234375 C 8.46875 -12.742188 7.625 -13 6.5625 -13 C 5.53125 -13 4.722656 -12.796875 4.140625 -12.390625 C 3.554688 -11.984375 3.265625 -11.429688 3.265625 -10.734375 C 3.265625 -10.148438 3.535156 -9.65625 4.078125 -9.25 C 4.617188 -8.84375 5.59375 -8.46875 7 -8.125 C 8.84375 -7.664062 10.15625 -7.09375 10.9375 -6.40625 C 11.726562 -5.726562 12.125 -4.859375 12.125 -3.796875 C 12.125 -2.546875 11.648438 -1.554688 10.703125 -0.828125 C 9.765625 -0.0976562 8.503906 0.265625 6.921875 0.265625 Z M 6.921875 0.265625 "/></g></g></g></g></g></g></svg>